<svg id="eri-logo-horizontal" data-name="eri-logo-horizontal" xmlns="http://www.w3.org/2000/svg" viewBox="0 0 210.47 72.84"><defs><style>.white{fill:#ffffff;}</style></defs><title>ERI Logo - Horizontal</title><path class="white" d="M79.09,46.82C79.64,48,79,50,79,50c-1.7,5.42-8,6.88-15.25,6.55-2.49-4.81-5.18-9.42-7.68-14.21,5.37-3.11,10.54-6.41,15.89-9.53C74.23,37.56,78.54,45.68,79.09,46.82Z" transform="translate(-4.77 -8.58)"/><path class="white" d="M77.85,53.53c-3.12,5.74-6.29,12.73-10,17.92-2.85,4-8.12,4.76-15.45,4.33-.2,1.71,0,3.79-.09,5.65-2.79-4.8-5.61-9.57-8.3-14.48C46.69,61.88,49.56,57,52.25,52c.21,1.62,0,3.62.09,5.38C61.38,58,73.61,59.22,77.85,53.53Z" transform="translate(-4.77 -8.58)"/><path class="white" d="M38.14,57.66c0,1.69,0,3.35,0,5.07V75.95c-7.75-.35-16.49,1.12-20.65-2.56-2.56-2.26-4.28-6.65-6-9.8-2-3.64-4-7-5.65-10.24,1.46,2.16,4.1,3.3,7.38,3.87.47.08.95.15,1.44.21a37.42,37.42,0,0,0,5.13.36h3.75c4-.1,8-.1,12-.13l1.08,0Z" transform="translate(-4.77 -8.58)"/><path class="white" d="M31.51,48.59c-1.69-.9-3.21-2-4.94-2.83-2.38,3.54-4.24,7.58-6.8,10.95-7.53.44-13.72-1.23-15-7.33.95-4.85,3.85-9.15,5.65-13.15-1.57-1.14-3.76-2.13-5.12-3.18H22.86C25.71,38.26,28.65,43.39,31.51,48.59Z" transform="translate(-4.77 -8.58)"/><path class="white" d="M26.06,10.75c.61-.82,2.81-1.38,2.84-1.39,5.59-1.05,9.83,3.82,13,10.37-3.08,4.46-5.87,9-8.93,13.46C27.66,29.92,22.32,26.91,17,23.66,20.17,19.39,25.45,11.56,26.06,10.75Z" transform="translate(-4.77 -8.58)"/><path class="white" d="M32.56,8.68c6.53,0,14.19-.44,20.51.37,4.88.63,8,4.92,11.08,11.59,1.6-.62,3.36-1.76,5-2.58-2.92,4.72-5.81,9.45-8.87,14.13-5.71.06-11.33-.2-17-.22,1.33-.94,3.18-1.73,4.71-2.61C44.28,21.1,39.59,9.75,32.56,8.68Z" transform="translate(-4.77 -8.58)"/><path class="white" d="M38.22,48l14-7s-3.67-9.16-13.67-5.46c0,0-9,3.62-4.12,14a9.75,9.75,0,0,0,8.47,4.92s4.82.2,7.63-3.22l-3.24-2.4S42.41,53,38.22,48Zm2-8.85a6.62,6.62,0,0,1,6.53.75l-9.48,4.78S37.06,40.72,40.23,39.13Z" transform="translate(-4.77 -8.58)"/><path class="white" d="M117.29,39q3.61,0,4.93-.84t1.45-3.64a2.33,2.33,0,0,1,1.54-.34q1.2,0,1.47.34-.14,4.2-.14,6,0,1.27.14,6.18-.27.31-1.47.31a2.32,2.32,0,0,1-1.54-.34,4.36,4.36,0,0,0-1.5-3.47q-1.37-1-4.87-1h-5.66V58.37a3.52,3.52,0,0,0,.85,2.39,2.59,2.59,0,0,0,2,1h7.06q7.34,0,9.86-9a4.32,4.32,0,0,1,3.14.34q-.14,1.07-.44,3.63t-.67,4.52q-.36,2-.77,3.46-6.29-.14-9.67-.14H106.59q-7.41.07-10.85.14a1.75,1.75,0,0,1-.27-1.18,1.92,1.92,0,0,1,.27-1.21q3.91-.14,5-1.14T101.82,56V28q0-4.2-1.09-5.21t-5-1.15a2,2,0,0,1-.27-1.2,2,2,0,0,1,.27-1.2l10.8.14h20.64a20.33,20.33,0,0,0,3.42-.27c.18,0,.28.07.31.21a20.14,20.14,0,0,1,.21,2.12l.31,4.34q.17,2.43.31,3.64a4.94,4.94,0,0,1-3,.35,14.75,14.75,0,0,0-2.93-5.84q-1.67-1.73-5.32-1.73H114.5a2.51,2.51,0,0,0-2,1.05,3.74,3.74,0,0,0-.84,2.4V39Z" transform="translate(-4.77 -8.58)"/><path class="white" d="M157.76,18.78q7.57,0,11.41,2.29a10.42,10.42,0,0,1,5.24,9.58,12.68,12.68,0,0,1-2.28,7.88,13.73,13.73,0,0,1-5.5,4.4l9.5,14.84a14.06,14.06,0,0,0,3,3.57,6,6,0,0,0,3.69,1.09,2.83,2.83,0,0,1,.24,1.16,2,2,0,0,1-.17,1.09q-1.13.55-7.14.55-5,0-9.22-6.13l-8.12-12.36a3.88,3.88,0,0,0-2-1.72,18.87,18.87,0,0,0-5.14-.43V56a14.8,14.8,0,0,0,.33,3.44,3.15,3.15,0,0,0,1.2,1.93,4.67,4.67,0,0,0,1.71.78,17.18,17.18,0,0,0,2.58.24,1.3,1.3,0,0,1,.5,1.13,1.19,1.19,0,0,1-.5,1.13q-5.6-.13-10.63-.13-5.2,0-10.8.13a1.39,1.39,0,0,1-.48-1.21,1.3,1.3,0,0,1,.48-1.18,17.9,17.9,0,0,0,2.6-.24,4.7,4.7,0,0,0,1.73-.77,3,3,0,0,0,1.18-1.88,15.15,15.15,0,0,0,.31-3.41V27.88a15.19,15.19,0,0,0-.31-3.39,3,3,0,0,0-1.18-1.9,4.71,4.71,0,0,0-1.71-.77,17.8,17.8,0,0,0-2.61-.24,1.35,1.35,0,0,1-.48-1.2,1.18,1.18,0,0,1,.48-1.13q1.4,0,11-.24T157.76,18.78Zm6.84,13.06q0-10.25-9.09-10.25-2.67,0-3.44,1.25t-.77,5v14h3q5,0,7.66-2T164.6,31.84Z" transform="translate(-4.77 -8.58)"/><path class="white" d="M190.7,27.94a15.15,15.15,0,0,0-.31-3.38,3,3,0,0,0-1.18-1.9,4.73,4.73,0,0,0-1.71-.77,18,18,0,0,0-2.62-.24,1.41,1.41,0,0,1-.48-1.23,1.23,1.23,0,0,1,.48-1.16q5.6.14,10.8.14,5,0,10.63-.14a1.24,1.24,0,0,1,.5,1.15,1.4,1.4,0,0,1-.5,1.25,17.72,17.72,0,0,0-2.58.24,4.73,4.73,0,0,0-1.71.77,3.09,3.09,0,0,0-1.2,1.88,14.32,14.32,0,0,0-.33,3.4V56a14.35,14.35,0,0,0,.33,3.38,3.1,3.1,0,0,0,1.2,1.9,4.71,4.71,0,0,0,1.71.77,17.45,17.45,0,0,0,2.58.24,1.41,1.41,0,0,1,.5,1.2,1.29,1.29,0,0,1-.5,1.2q-5.61-.14-10.63-.14-5.2,0-10.8.14a1.39,1.39,0,0,1-.48-1.21,1.3,1.3,0,0,1,.48-1.18,17.9,17.9,0,0,0,2.6-.24,4.7,4.7,0,0,0,1.73-.77,3,3,0,0,0,1.18-1.88,15.11,15.11,0,0,0,.31-3.4Z" transform="translate(-4.77 -8.58)"/><path class="white" d="M212.42,18.78a2.9,2.9,0,0,1,1.38.36,2.63,2.63,0,0,1,1.05,1,2.84,2.84,0,0,1,0,2.82,2.65,2.65,0,0,1-1,1,2.81,2.81,0,0,1-2.8,0,2.64,2.64,0,0,1-1-1,2.83,2.83,0,0,1,0-2.82,2.64,2.64,0,0,1,1.05-1A2.91,2.91,0,0,1,212.42,18.78Zm0,.47a2.41,2.41,0,0,0-1.16.3,2.2,2.2,0,0,0-.88.88,2.34,2.34,0,0,0,0,2.34,2.23,2.23,0,0,0,.87.87,2.33,2.33,0,0,0,2.33,0,2.23,2.23,0,0,0,.87-.87,2.35,2.35,0,0,0,0-2.34,2.15,2.15,0,0,0-.88-.88A2.4,2.4,0,0,0,212.42,19.25Zm-1.23,3.91v-3h1a2.45,2.45,0,0,1,.77.09.73.73,0,0,1,.38.29.78.78,0,0,1,.14.45.81.81,0,0,1-.24.58.94.94,0,0,1-.63.28.78.78,0,0,1,.26.16,3.57,3.57,0,0,1,.45.6l.37.59h-.6l-.27-.48a2.68,2.68,0,0,0-.51-.7.63.63,0,0,0-.39-.1h-.29v1.29Zm.49-1.71h.6a1,1,0,0,0,.59-.13A.42.42,0,0,0,213,21a.39.39,0,0,0-.08-.24.44.44,0,0,0-.21-.16,1.57,1.57,0,0,0-.5-.05h-.56Z" transform="translate(-4.77 -8.58)"/></svg>